<svg width="39" height="15" viewBox="0 0 39 15" xmlns="http://www.w3.org/2000/svg" xmlns:xlink="http://www.w3.org/1999/xlink"><title>E0549B97-65E4-4106-AC91-C73A0C647694</title><defs><path id="a" d="M36.131.101H.001V6.5h36.13V.1z"/><path id="c" d="M4.089 4.897V.35H.21v4.546h3.878z"/></defs><g fill="none" fill-rule="evenodd"><g transform="translate(.375 .41)"><mask id="b" fill="#fff"><use xlink:href="#a"/></mask><path d="M9.85 6.493v-.485l-.233.485H7.611l-.251-.52v.52H3.61l-.444-1.05h-.751l-.469 1.05H0V3.326L1.427.101h2.729l.383.914V.108h3.339l.733 1.539L9.33.1h10.538s.553-.007.916.249L20.78.1h2.655v.35S23.913.1 24.619.1h4.684l.412.927V.101h3.002l.544.927V.101h2.87V6.5h-2.948l-.693-1.116v1.11h-3.664L28.31 5.35h-.718l-.484 1.143h-2.217s-.827-.01-1.447-.455v.455h-4.416V5c0-.217-.166-.201-.166-.201h-.16v1.694H9.85z" fill="#FFF" mask="url(#b)"/></g><path d="M8.022 8.288h5.802l.836.948.857-.948h4.46s.42.01.818.223v-.223h3.972c.504 0 .928.252.928.252v-.252H30.8v.233s.363-.233.852-.233h3.327v.233s.418-.233.861-.233h2.612v6.03s-.343.388-1.054.388h-3.443v-.192s-.327.192-.826.192h-9.147v-1.559c0-.153-.067-.18-.203-.18h-.126v1.739h-2.858v-1.729s-.318.17-.847.17H18.92v1.559h-3.524l-.802-.978-.856.978H8.022V8.288z" fill="#FFF"/><path fill="#0071A0" d="M26.307 9.25h3.64v.977h-2.525v.851h2.455v.86h-2.455v.896h2.526v.953h-3.641z"/><g transform="translate(34.375 8.91)"><mask id="d" fill="#fff"><use xlink:href="#c"/></mask><path d="M2.606 2.108c1.37.07 1.483.753 1.483 1.483 0 .85-.699 1.306-1.427 1.306H.322v-.973h1.823c.309 0 .77 0 .77-.435 0-.207-.081-.34-.41-.374-.147-.021-.688-.051-.77-.053C.499 3.03.211 2.415.211 1.666.21.816.809.351 1.538.351h2.34v.972H2.164c-.389.004-.809-.046-.809.394 0 .278.207.334.47.36.092 0 .699.031.78.03" fill="#0071A0" mask="url(#d)"/></g><path d="M32.788 11.018c1.37.07 1.484.754 1.484 1.483 0 .85-.699 1.306-1.428 1.306h-2.339v-.973h1.823c.309 0 .77 0 .77-.435 0-.207-.082-.339-.41-.374a13.35 13.35 0 0 0-.77-.052c-1.237-.033-1.524-.648-1.524-1.397 0-.85.597-1.315 1.327-1.315h2.339v.972h-1.712c-.39.004-.81-.046-.81.394 0 .279.208.335.471.36.09 0 .7.032.78.03M19.21 11.323h-1.388v-1.089h1.391c.466 0 .614.299.614.521 0 .304-.162.568-.618.568zm-2.512 2.038l-1.6-1.893 1.6-1.772v3.665zm-4.257-.527H9.874v-.895h2.455v-.86H9.874v-.852l2.708.006 1.084 1.235-1.225 1.366zm7.143-3.574h-3.908l-1.277 1.408-1.234-1.417h-4.39v4.536h4.248l1.336-1.5 1.307 1.51h2.136v-1.54H19.3c.578 0 1.63-.02 1.63-1.61 0-1.134-.8-1.387-1.346-1.387zM24.002 11.262h-1.387v-1.028h1.392c.466 0 .612.299.612.521 0 .304-.161.507-.617.507m.961.47c.608-.304.77-.71.77-1.257 0-.97-.79-1.214-1.336-1.214H21.5v4.536h1.114v-1.6h1.458c.385 0 .536.384.546.77l.03.83h1.084l-.04-.932c0-.73-.202-1.074-.73-1.134M21.947 5.961h1.114V1.42h-1.114zM12.83 1.425h3.64v.977h-2.525v.85h2.454v.861h-2.454v.896h2.525v.952h-3.64zM19.632 3.426h-1.387V2.398h1.392c.466 0 .613.299.613.521 0 .305-.162.507-.618.507m.962.47c.608-.303.77-.71.77-1.257 0-.972-.79-1.214-1.337-1.214h-2.895v4.536h1.113v-1.6h1.458c.385 0 .537.385.547.77l.03.83h1.084l-.04-.932c0-.729-.203-1.073-.73-1.134M2.415 3.97l.664-1.586.692 1.586H2.415zm7.847-2.545L8.896 4.468 7.534 1.425H5.787v4.369L3.843 1.425H2.37L.385 5.961H1.56l.434-1.013h2.224l.44 1.013h2.243V2.594l1.488 3.367H9.4l1.524-3.311v3.311h1.114V1.425h-1.777zM27.713 3.972l.663-1.586.698 1.586h-1.361zm6.84-2.55v3.142l-1.877-3.141H31.03v4.26l-1.898-4.258h-1.474L26.124 4.94s-.648 0-.713-.016c-.27-.055-.689-.245-.694-1.044v-.33c0-1.063.578-1.14 1.318-1.14h.688v-.986h-1.455c-.506 0-1.607.386-1.644 2.25-.026 1.255.52 2.29 1.756 2.29h1.468l.435-1.012h2.223l.44 1.012h2.197V2.642l2.005 3.321h1.519v-4.54h-1.114z" fill="#0071A0"/></g></svg>