<svg width="25" height="20" viewBox="0 0 25 20" xmlns="http://www.w3.org/2000/svg"><title>1C94FB62-3843-4CDC-9676-5CA17EA9DFAD</title><g fill="none" fill-rule="evenodd"><path d="M14.401 19.372c5.214.025 9.973-4.25 9.973-9.454 0-5.688-4.759-9.62-9.973-9.618H9.914C4.64.297.297 4.23.297 9.918c0 5.203 4.343 9.479 9.617 9.454h4.487z" fill="#004A97"/><path d="M9.937 1.087a8.733 8.733 0 0 0-8.73 8.732 8.731 8.731 0 1 0 8.73-8.732M4.403 9.82a5.545 5.545 0 0 1 3.553-5.165v10.328A5.543 5.543 0 0 1 4.403 9.82m7.513 5.165V4.654A5.538 5.538 0 0 1 15.47 9.82a5.54 5.54 0 0 1-3.554 5.165" fill="#FFF"/></g></svg>