<svg width="27" height="27" viewBox="0 0 27 27" xmlns="http://www.w3.org/2000/svg"><title>D1632877-F10C-4F7C-A087-C4658295927F</title><g fill="none" fill-rule="evenodd"><path d="M13.51.77c7.036 0 12.74 5.704 12.74 12.74 0 7.036-5.704 12.74-12.74 12.74C6.474 26.25.77 20.546.77 13.51.77 6.474 6.475.77 13.51.77" fill="#050013"/><path d="M13.51.77c7.036 0 12.74 5.704 12.74 12.74 0 7.036-5.704 12.74-12.74 12.74C6.474 26.25.77 20.546.77 13.51.77 6.474 6.475.77 13.51.77z" stroke="#231F1F" stroke-width=".567"/><path d="M9.717 12.53l-3.91 1.686a2.24 2.24 0 0 1 3.91-1.685m-1.68-2.435a3.916 3.916 0 0 1 3.806 2.996l-1.578.69v-.004l-1.615.71-3.873 1.693a3.915 3.915 0 0 1 3.26-6.085M10.772 16.812c-1.402 1.33-3.256 1.46-4.885.471l.92-1.4c.927.555 1.859.465 2.795-.27l1.17 1.199zM12.366 15.843l-.01-7.404h1.403v7.204c0 .069.009.13.1.165l1.22.474-.55 1.43-1.43-.605c-.542-.23-.732-.562-.733-1.264" fill="#FFF"/><path d="M17.648 15.718a2.23 2.23 0 0 1-.168-3.384l-.906-1.469a3.93 3.93 0 0 0-1.495 3.089c0 1.35.678 2.54 1.713 3.25l.856-1.486z" fill="#009DD7"/><path d="M18.262 11.85a2.235 2.235 0 0 1 2.847 1.315l1.736-.144a3.94 3.94 0 0 0-5.308-2.718l.725 1.548z" fill="#FFF200"/><path d="M21.25 14.062a2.234 2.234 0 0 1-2.776 2.059l-.681 1.577a3.938 3.938 0 0 0 5.16-3.582l-1.704-.054z" fill="#E33206"/></g></svg>