<svg width="39" height="23" viewBox="0 0 39 23" xmlns="http://www.w3.org/2000/svg"><title>124B4197-D473-4AEA-BFDC-181D93B9DFC4</title><g fill="none" fill-rule="evenodd"><path fill="#FBB231" d="M26.873.3l-.581.016-.577.042-.565.072-.558.1-.546.125-.538.154-.524.179-.516.202-.5.23-.486.248-.473.271-.458.295-.443.316-.429.337-.409.355-.394.375-.373.393-.356.412-.336.424-.313.444-.294.462-.271.47-.252.49-.226.5-.203.511-.175.527-.153.535-.126.546-.1.555-.072.565-.043.573-.015.58.015.585.043.577.073.566.099.56.126.547.153.538.175.528.203.516.226.504.252.489.271.474.294.462.313.444.336.427.356.413.373.394.394.378.41.355.428.337.443.316.458.294.473.276.485.248.5.23.517.202.524.18.538.152.546.126.558.1.565.072.577.042.581.015.584-.015.578-.042.565-.072.562-.1.545-.126.54-.153.527-.18.516-.202.503-.23.49-.247.473-.276.463-.294.443-.316.427-.337.414-.355.393-.378.378-.394.355-.413.337-.427.317-.444.294-.462.274-.474.249-.489.23-.504.202-.516.179-.528.154-.538.125-.546.1-.561.072-.566.042-.577.015-.585-.015-.58-.042-.573-.072-.565-.1-.555-.125-.546-.154-.535-.18-.527-.201-.512-.23-.5-.249-.49-.274-.47-.294-.461-.317-.444-.337-.424-.355-.412-.378-.393-.393-.375-.414-.355-.427-.337-.443-.316-.463-.295-.473-.271-.49-.248-.503-.23-.516-.202-.527-.18-.54-.153-.545-.125-.562-.1-.565-.072-.578-.042z"/><path fill="#EC1C2E" d="M11.722.3l-.585.016-.577.042-.566.072-.561.1-.546.125-.54.154-.526.179-.516.202-.504.23-.49.248-.473.271-.462.295-.444.316-.428.337-.412.355-.393.375-.378.393-.356.412-.336.424-.317.444-.294.462-.276.47-.247.49-.23.5-.203.511-.179.527-.153.535-.125.546-.1.555-.073.565-.041.573-.016.58.016.585.04.577.074.566.1.56.125.547.153.538.18.528.202.516.23.504.247.489.276.474.294.462.317.444.336.427.356.413.378.394.393.378.412.355.428.337.444.316.462.294.474.276.489.248.504.23.516.202.527.18.539.152.546.126.561.1.566.072.577.042.585.015.58-.015.577-.042.566-.072.558-.1.546-.126.538-.153.524-.18.515-.202.5-.23.486-.247.473-.276.458-.294.444-.316.428-.337.409-.355.393-.378.375-.394.356-.413.335-.427.313-.444.295-.462.271-.474.252-.489.225-.504.203-.516.176-.528.152-.538.127-.546.099-.561.073-.566.041-.577.016-.585-.016-.58-.041-.573-.073-.565-.099-.555-.127-.546-.152-.535-.176-.527-.203-.512-.225-.5-.252-.49-.27-.47-.296-.461-.313-.444-.335-.424-.356-.412-.375-.393-.393-.375-.409-.355-.428-.337-.444-.316-.458-.295-.473-.271-.485-.248-.5-.23-.516-.202-.524-.18-.538-.153-.546-.125-.558-.1-.566-.072-.577-.042z"/><path fill="#FBB231" d="M17.972 4.644h6.017V4.03H18.49zM17.07 6.011h6.919v-.615h-6.556zM16.398 7.376h7.59V6.76h-7.323zM15.935 8.743h8.054v-.615h-7.863zM16.203 15.353h7.805v-.615h-7.996zM16.78 16.72h7.228v-.615h-7.515zM17.59 18.084h6.418v-.615h-6.804zM18.705 19.452h5.303v-.62h-5.841zM15.664 10.107h8.325v-.615h-8.206zM20.737 13.989h3.175v-.616h-3.06zM20.99 12.624h2.922v-.618h-2.807zM15.454 12.006h.826v.618h-.787z"/><path fill="#FFF" d="M13.914 11.26l-.053-.003-.053-.008-.05-.007-.05-.008-.046-.007-.05-.008-.048-.007-.055-.009-.053-.007-.061-.004-.069-.004-.072-.004h-.081l-.088.004-.1.008-.11.007-.076.012-.072.012-.066.022-.057.023-.054.027-.049.03-.039.039-.034.034-.022.042-.02.042-.008.046v.046l.012.05.016.05.03.049.038.05.076.072.093.058.106.049.115.042.122.038.126.042.126.046.122.05.115.065.107.08.095.096.08.118.062.145.039.172.014.207-.014.24-.027.18-.046.156-.062.145-.076.126-.087.112-.1.095-.107.084-.118.073-.123.057-.126.05-.13.037-.133.031-.13.024-.126.01-.126.008-.119.003h-.165l-.152-.003h-.134l-.126-.003-.115-.004-.102-.008-.092-.008-.088-.011-.08-.008-.073-.015-.073-.012-.064-.019-.066-.015-.06-.023-.062-.023-.065-.023.172-.844.035.008.041.011.054.015.065.016.069.015.076.015.084.019.091.016.097.015.1.015.102.011.107.012.11.003.112.004h.11l.111-.004.11-.022.089-.031.068-.042.054-.053.038-.053.031-.062.02-.06.014-.058.008-.111-.034-.095-.066-.077-.095-.065-.115-.057-.134-.058-.149-.053-.148-.06-.153-.07-.145-.08-.134-.1-.122-.118-.096-.145-.069-.172-.034-.206.004-.244.019-.15.027-.141.038-.13.045-.122.062-.115.068-.1.08-.095.096-.083.112-.073.121-.061.138-.058.153-.041.172-.035.187-.027.206-.015.226-.004h.14l.13.004.12.004.106.004.096.007.087.008.077.007.068.008.066.007.054.012.048.008.047.008.038.007.034.004.034.008.031.004z"/><path stroke="#FFF" stroke-width=".216" d="M13.914 11.26l-.053-.003-.053-.008-.05-.007-.05-.008-.046-.007-.05-.008-.048-.007-.055-.009-.053-.007-.061-.004-.069-.004-.072-.004h-.081l-.088.004-.1.008-.11.007-.076.012-.072.012-.066.022-.057.023-.054.027-.049.03-.039.039-.034.034-.022.042-.02.042-.008.046v.046l.012.05.016.05.03.049.038.05.076.072.093.058.106.049.115.042.122.038.126.042.126.046.122.05.115.065.107.08.095.096.08.118.062.145.039.172.014.207-.014.24-.027.18-.046.156-.062.145-.076.126-.087.112-.1.095-.107.084-.118.073-.123.057-.126.05-.13.037-.133.031-.13.024-.126.01-.126.008-.119.003h-.165l-.152-.003h-.134l-.126-.003-.115-.004-.102-.008-.092-.008-.088-.011-.08-.008-.073-.015-.073-.012-.064-.019-.066-.015-.06-.023-.062-.023-.065-.023.172-.844.035.008.041.011.054.015.065.016.069.015.076.015.084.019.091.016.097.015.1.015.102.011.107.012.11.003.112.004h.11l.111-.004.11-.022.089-.031.068-.042.054-.053.038-.053.031-.062.02-.06.014-.058.008-.111-.034-.095-.066-.077-.095-.065-.115-.057-.134-.058-.149-.053-.148-.06-.153-.07-.145-.08-.134-.1-.122-.118-.096-.145-.069-.172-.034-.206.004-.244.019-.15.027-.141.038-.13.045-.122.062-.115.068-.1.08-.095.096-.083.112-.073.121-.061.138-.058.153-.041.172-.035.187-.027.206-.015.226-.004h.14l.13.004.12.004.106.004.096.007.087.008.077.007.068.008.066.007.054.012.048.008.047.008.038.007.034.004.034.008.031.004-.195.862"/><path fill="#FFF" d="M14.82 9.454h1.059l-.157.925h.638l-.138.863-.673-.02-.366 2.132-.004.077.019.065.038.05.05.041.069.027.076.023.084.015.092.008.083-.003.077-.009.07-.011.06-.015.05-.016.034-.01.023-.009.007-.003-.132.71-.028.02-.026.014-.027.016-.027.015-.027.011-.03.012-.035.011-.034.012-.038.011-.039.008-.045.008-.045.008-.05.007-.058.008-.062.007-.065.008h-.29l-.153-.012-.133-.015-.122-.022-.103-.028-.089-.034-.072-.038-.065-.046-.05-.05-.038-.053-.027-.065-.019-.065-.011-.072-.004-.08v-.085l.011-.088.012-.095z"/><path stroke="#FFF" stroke-width=".216" d="M14.82 9.454h1.059l-.157.925h.638l-.138.863-.673-.02-.366 2.132-.004.077.019.065.038.05.05.041.069.027.076.023.084.015.092.008.083-.003.077-.009.07-.011.06-.015.05-.016.034-.01.023-.009.007-.003-.132.71-.028.02-.026.014-.027.016-.027.015-.027.011-.03.012-.035.011-.034.012-.038.011-.039.008-.045.008-.045.008-.05.007-.058.008-.062.007-.065.008h-.29l-.153-.012-.133-.015-.122-.022-.103-.028-.089-.034-.072-.038-.065-.046-.05-.05-.038-.053-.027-.065-.019-.065-.011-.072-.004-.08v-.085l.011-.088.012-.095.73-4.168"/><path stroke="#FFF" stroke-width=".216" d="M17.204 12.682l-.012.064-.003.07.007.072.015.073.027.072.031.07.042.072.045.065.054.065.057.058.062.056.068.046.069.042.076.035.076.026.077.016.1.014.095.013.1.01.099.009.1.003h.102l.1-.003.103-.008.103-.015.103-.02.107-.023.103-.034.108-.042.11-.046.107-.06.11-.066-.152.94-.062.03-.06.032-.062.022-.056.023-.058.02-.062.019-.06.014-.065.012-.07.011-.075.009-.08.007-.088.007-.1.005h-.103l-.119.003h-.126l-.187-.003-.19-.02-.192-.027-.19-.046-.188-.056-.18-.074-.172-.095-.16-.111-.149-.13-.13-.156-.11-.176-.093-.203-.064-.225-.042-.256-.012-.283.02-.313.015-.122.022-.142.031-.148.042-.161.058-.164.068-.164.088-.169.107-.16.122-.153.149-.145.168-.13.191-.114.222-.096.248-.069.275-.046.31-.015.149.004.157.015.156.027.157.038.153.058.149.068.138.092.125.107.115.13.095.153.076.176.054.202.03.228.005.26-.027.291-.058.321-.019.233h-2.784l.175-.753h1.674l.007-.095-.004-.092-.008-.084-.015-.076-.026-.073-.027-.065-.039-.057-.037-.054-.046-.045-.05-.039-.057-.034-.058-.03-.06-.023-.062-.015-.065-.012-.069-.008-.072.004-.069.012-.065.015-.065.023-.065.03-.057.035-.058.042-.049.045-.05.054-.046.057-.042.061-.034.066-.035.068-.026.077-.023.076-.016.08-.152.791"/><path fill="#FFF" d="M26.315 10.608l-.05-.027-.049-.023-.054-.027-.057-.027-.058-.023-.064-.022-.065-.024-.068-.022-.073-.02-.074-.014-.08-.016-.08-.012-.087-.007-.088-.008H25.085l-.1.008-.103.011-.106.02-.107.03-.107.042-.107.054-.108.068-.102.084-.1.1-.096.122-.09.141-.085.168-.08.191-.073.215-.06.244-.024.137-.015.134-.008.134.005.13.01.13.027.122.035.115.041.114.058.103.068.1.081.087.092.08.103.07.118.057.13.05.145.034.05.01.058.012.069.008.076.008.083.008h.184l.096-.008.099-.012.099-.019.096-.027.095-.03.095-.042.088-.05.08-.06.077-.07-.171 1.021-.024.019-.022.023-.031.027-.034.022-.042.03-.054.027-.061.027-.069.023-.087.027-.1.02-.114.015-.135.015-.148.007-.173.004-.194-.004-.215-.011-.175-.02-.176-.038-.175-.057-.176-.077-.168-.09-.16-.116-.153-.133-.142-.153-.127-.172-.106-.19-.091-.214-.069-.234-.046-.256-.016-.271.008-.298.042-.317.03-.157.035-.153.038-.148.04-.142.04-.134.05-.133.05-.126.053-.119.058-.118.057-.111.065-.107.068-.1.07-.095.076-.091.076-.084.08-.08.088-.077.088-.073.092-.065.096-.061.102-.058.104-.048.107-.047.11-.042.12-.038.117-.03.122-.028.13-.022.13-.02.138-.014.137-.008.146-.005.123.005.117.008.115.011.114.015.108.015.103.023.099.02.092.022.088.023.076.023.073.023.06.023.054.019.046.016.034.015.024.008z"/><path stroke="#FFF" stroke-width=".216" d="M26.315 10.608l-.05-.027-.049-.023-.054-.027-.057-.027-.058-.023-.064-.022-.065-.024-.068-.022-.073-.02-.074-.014-.08-.016-.08-.012-.087-.007-.088-.008H25.085l-.1.008-.103.011-.106.02-.107.03-.107.042-.107.054-.108.068-.102.084-.1.1-.096.122-.09.141-.085.168-.08.191-.073.215-.06.244-.024.137-.015.134-.008.134.005.13.01.13.027.122.035.115.041.114.058.103.068.1.081.087.092.08.103.07.118.057.13.05.145.034.05.01.058.012.069.008.076.008.083.008h.184l.096-.008.099-.012.099-.019.096-.027.095-.03.095-.042.088-.05.08-.06.077-.07-.171 1.021-.024.019-.022.023-.031.027-.034.022-.042.03-.054.027-.061.027-.069.023-.087.027-.1.02-.114.015-.135.015-.148.007-.173.004-.194-.004-.215-.011-.175-.02-.176-.038-.175-.057-.176-.077-.168-.09-.16-.116-.153-.133-.142-.153-.127-.172-.106-.19-.091-.214-.069-.234-.046-.256-.016-.271.008-.298.042-.317.03-.157.035-.153.038-.148.04-.142.04-.134.05-.133.05-.126.053-.119.058-.118.057-.111.065-.107.068-.1.07-.095.076-.091.076-.084.08-.08.088-.077.088-.073.092-.065.096-.061.102-.058.104-.048.107-.047.11-.042.12-.038.117-.03.122-.028.13-.022.13-.02.138-.014.137-.008.146-.005.123.005.117.008.115.011.114.015.108.015.103.023.099.02.092.022.088.023.076.023.073.023.06.023.054.019.046.016.034.015.024.008-.192 1.058"/><path fill="#FFF" d="M35.72 14.47h-1.057l.076-.424v-.038l-.061.076-.066.069-.063.06-.07.055-.068.05-.07.04-.068.035-.073.035-.072.027-.073.019-.073.019-.076.01-.076.013-.073.008-.076.003h-.076l-.199-.015-.183-.042-.168-.065-.153-.088-.138-.111-.122-.13-.107-.141-.092-.16-.076-.173-.061-.179-.042-.187-.031-.195-.011-.195.003-.198.019-.195.035-.195.057-.226.069-.214.08-.194.096-.184.099-.172.115-.153.118-.137.126-.126.134-.111.141-.095.145-.084.146-.065.152-.054.153-.034.152-.023.157-.007.112.003.106.012.1.019.092.027.087.03.077.034.076.043.07.042.06.045.057.05.05.05.046.05.038.049.034.05.031.046.023.045.268-1.5h1.038z"/><path stroke="#FFF" stroke-width=".216" d="M35.72 14.47h-1.057l.076-.424v-.038l-.061.076-.066.069-.063.06-.07.055-.068.05-.07.04-.068.035-.073.035-.072.027-.073.019-.073.019-.076.01-.076.013-.073.008-.076.003h-.076l-.199-.015-.183-.042-.168-.065-.153-.088-.138-.111-.122-.13-.107-.141-.092-.16-.076-.173-.061-.179-.042-.187-.031-.195-.011-.195.003-.198.019-.195.035-.195.057-.226.069-.214.08-.194.096-.184.099-.172.115-.153.118-.137.126-.126.134-.111.141-.095.145-.084.146-.065.152-.054.153-.034.152-.023.157-.007.112.003.106.012.1.019.092.027.087.03.077.034.076.043.07.042.06.045.057.05.05.05.046.05.038.049.034.05.031.046.023.045.268-1.5h1.038l-.863 4.996"/><path fill="#FBB231" d="M33.99 13.546l.107-.008.1-.023.092-.027.088-.042.08-.045.076-.058.073-.065.064-.07.058-.076.053-.084.05-.087.042-.091.038-.097.03-.099.027-.103.02-.103.018-.107.012-.11v-.104l-.003-.107-.012-.099-.015-.096-.027-.092-.03-.087-.039-.076-.046-.073-.049-.062-.058-.053-.065-.046-.068-.03-.073-.02-.08-.007-.104.008-.095.015-.088.03-.088.038-.076.05-.077.062-.065.065-.065.072-.057.084-.053.088-.05.091-.042.1-.038.103-.03.104-.031.11-.023.11-.02.17.009.183.026.186.05.18.076.157.1.126.125.084z"/><path fill="#FFF" d="M10.53 13.622l-.154.848h-.962l.027-.157.02-.141.014-.107.016-.057-.054.06-.061.062-.073.057-.08.054-.092.053-.095.046-.1.046-.103.038-.111.034-.11.027-.111.024-.115.015-.11.007-.111.004-.107-.011-.104-.015-.133-.035-.123-.038-.106-.05-.096-.058-.083-.06-.077-.07-.061-.072-.054-.076-.045-.08-.04-.085-.03-.084-.023-.084-.015-.087-.011-.089-.008-.084v-.084l.011-.149.023-.14.04-.135.049-.13.06-.122.07-.11.08-.107.091-.096.096-.088.107-.08.111-.073.114-.061.122-.053.127-.042.13-.035.133-.023h.008l.019-.004.027-.003.041-.004.047-.007.053-.004.057-.008.065-.008.065-.007.066-.008.069-.004.06-.008.061-.003.057-.005.054-.003h.13l.092.003.084.005h.084l.068.003.054.004.038.004h.011l.008-.027.023-.068.019-.08.008-.073-.016-.084-.034-.077-.046-.068-.061-.058-.072-.049-.08-.035-.093-.023-.099-.007-.106-.004-.116-.004H8.94l-.122.004-.126.008-.122.01-.123.012-.118.016-.115.015-.11.019-.1.019-.091.019-.084.023-.07.023-.052.027-.043.022.272-.92.084-.034.083-.031.092-.026.092-.02.092-.019.1-.015.098-.016.103-.007.107-.008.111-.004.115-.004h.366l.134.004.134.004.107.008.115.019.118.027.122.034.118.047.115.053.115.065.108.072.094.084.085.092.076.103.057.114.038.123.023.13v.145l-.023.153z"/><path stroke="#FFF" stroke-width=".216" d="M10.53 13.622l-.154.848h-.962l.027-.157.02-.141.014-.107.016-.057-.054.06-.061.062-.073.057-.08.054-.092.053-.095.046-.1.046-.103.038-.111.034-.11.027-.111.024-.115.015-.11.007-.111.004-.107-.011-.104-.015-.133-.035-.123-.038-.106-.05-.096-.058-.083-.06-.077-.07-.061-.072-.054-.076-.045-.08-.04-.085-.03-.084-.023-.084-.015-.087-.011-.089-.008-.084v-.084l.011-.149.023-.14.04-.135.049-.13.06-.122.07-.11.08-.107.091-.096.096-.088.107-.08.111-.073.114-.061.122-.053.127-.042.13-.035.133-.023h.008l.019-.004.027-.003.041-.004.047-.007.053-.004.057-.008.065-.008.065-.007.066-.008.069-.004.06-.008.061-.003.057-.005.054-.003h.13l.092.003.084.005h.084l.068.003.054.004.038.004h.011l.008-.027.023-.068.019-.08.008-.073-.016-.084-.034-.077-.046-.068-.061-.058-.072-.049-.08-.035-.093-.023-.099-.007-.106-.004-.116-.004H8.94l-.122.004-.126.008-.122.01-.123.012-.118.016-.115.015-.11.019-.1.019-.091.019-.084.023-.07.023-.052.027-.043.022.272-.92.084-.034.083-.031.092-.026.092-.02.092-.019.1-.015.098-.016.103-.007.107-.008.111-.004.115-.004h.366l.134.004.134.004.107.008.115.019.118.027.122.034.118.047.115.053.115.065.108.072.094.084.085.092.076.103.057.114.038.123.023.13v.145l-.023.153-.385 2.017"/><path fill="#EC1C2E" d="M9.609 12.624l-.004-.019-.015-.018-.023-.012-.038-.007-.042-.008-.05-.004h-.115l-.06.004-.065.008-.062.007-.061.008-.057.008-.054.01-.046.012-.042.011-.026.008-.03.012-.043.015-.042.019-.05.023-.05.027-.053.026-.05.031-.053.038-.05.039-.046.045-.041.047-.04.048-.025.055-.023.06-.012.062-.004.13.02.103.038.076.05.057.057.039.065.022.061.012.061.003.114-.003.104-.012.1-.015.087-.023.076-.027.073-.034.065-.034.057-.042.05-.039.045-.045.039-.042.03-.046.026-.046.025-.045.018-.043.01-.042.032-.11.027-.127.023-.122z"/><path fill="#FFF" d="M2.491 14.47H1.453l.867-5.016h1.806L4.3 12.43l1.25-2.976h1.886L6.55 14.47h-1.04l.658-3.748h-.042L4.57 14.47H3.398l-.009-.157-.026-.416-.034-.592-.04-.68-.037-.684-.035-.6-.026-.435-.008-.184h-.057z"/><path stroke="#FFF" stroke-width=".216" d="M2.491 14.47H1.453l.867-5.016h1.806L4.3 12.43l1.25-2.976h1.886L6.55 14.47h-1.04l.658-3.748h-.042L4.57 14.47H3.398l-.009-.157-.026-.416-.034-.592-.04-.68-.037-.684-.035-.6-.026-.435-.008-.184h-.057L2.49 14.47"/><path fill="#FFF" d="M29.49 13.622l-.156.848h-.96l.008-.157.004-.137v-.103l.007-.046-.049.057-.058.058-.068.053-.077.054-.079.05-.092.045-.096.046-.095.038-.104.03-.107.03-.106.02-.107.016-.111.007-.107.004-.103-.011-.104-.015-.137-.035-.122-.038-.107-.05-.1-.058-.084-.06-.073-.07-.06-.072-.054-.076-.046-.08-.034-.085-.03-.084-.02-.084-.016-.087-.01-.089-.009-.084v-.084l.009-.149.022-.14.035-.135.05-.13.056-.122.073-.11.08-.107.088-.096.1-.088.103-.08.11-.073.12-.061.117-.053.126-.042.127-.035.13-.023h.008l.018-.004.027-.003.038-.004.05-.007.053-.004.058-.008.06-.008.066-.007.069-.008.065-.004.064-.008.062-.003.052-.005.054-.003h.134l.092.003.088.005h.084l.073.003.06.004.035.004h.016l.007-.027.012-.068.01-.08.008-.073-.015-.084-.03-.077-.05-.068-.058-.058-.068-.049-.08-.035-.084-.023-.092-.007-.107-.004-.115-.004h-.118l-.123.004-.125.008-.123.01-.122.012-.118.016-.115.015-.11.019-.1.019-.092.019-.084.023-.068.023-.055.027-.041.022.267-.92.084-.034.089-.031.087-.026.091-.02.096-.019.096-.015.099-.016.103-.007.107-.008.11-.004.111-.004h.36l.13.004.13.004.107.008.114.019.119.027.122.034.119.047.118.053.114.065.107.072.096.084.088.092.076.103.058.114.041.123.028.13v.145l-.02.153z"/><path d="M29.31 14.467l.024-.024v.053l.022-.023.157-.848-.046-.007-.156.849zm.024.03l.018-.005.004-.019-.022.023z" fill="#FFF"/><path d="M28.375 14.443l.023.027h-.046l.023.027h.959v-.054h-.96zm-.027.054h.027l-.023-.027-.004.027z" fill="#FFF"/><path d="M28.377 14.014l.036.027-.035-.03v.003zm0 0l-.002-.002.002.002zm-.014.059l-.005.103v.137l-.006.157h.046l.007-.157.008-.137-.004-.103v-.032l-.032-.027-.014.059z" fill="#FFF"/><path fill="#FFF" d="M26.927 14.531l.106.015.104.011.106-.003.112-.008.11-.015.107-.02.108-.03.106-.03.096-.039.099-.045.092-.046.08-.053.08-.054.069-.053.061-.062.05-.057-.038-.03-.05.057-.054.054-.068.053-.073.053-.08.046-.092.046-.092.046-.095.038-.1.03-.106.032-.108.018-.102.016-.112.008-.106.003-.104-.011-.098-.016z"/><path fill="#FFF" d="M26.002 13.373l.004.084.008.084.011.092.015.088.02.084.03.088.034.088.05.08.053.08.062.073.076.072.088.062.1.061.11.05.126.038.138.034.008-.045-.138-.035-.118-.038-.104-.05-.1-.054-.08-.06-.068-.066-.062-.072-.053-.073-.042-.08-.034-.08-.031-.08-.019-.085-.015-.088-.011-.084-.008-.084.004-.084z"/><path fill="#FFF" d="M27.373 11.906l-.133.023-.13.035-.126.042-.122.053-.12.061-.113.077-.104.08-.099.092-.091.095-.081.107-.076.115-.058.126-.049.13-.034.137-.023.145-.012.15h.053l.004-.15.024-.137.034-.13.05-.13.056-.118.069-.108.08-.106.084-.095.1-.085.103-.08.106-.068.12-.062.114-.053.126-.042.122-.035.126-.023zM28.118 11.826l-.053.008-.053.005-.062.003-.065.007-.064.004-.069.008-.066.007-.06.008-.058.008-.053.003-.05.008-.038.004-.03.004-.015.003h-.008v.046h.008l.022-.004.023-.003.038-.004.05-.008.053-.004.058-.007.06-.008.066-.008.069-.007.064-.004.065-.008.062-.003.053-.005h.096v-.053z"/><path d="M28.16 11.826v.053h.184l.088.008h.157l.06.004.035.004h.016l.022-.019-.046-.008.024-.02h-.016l-.034-.003-.061-.003-.073-.008h-.172l-.091-.008h-.092zm.54.07l.019.003.003-.023-.022.02z" fill="#FFF"/><path fill="#FFF" d="M28.76 11.624h-.049l-.004.072-.012.076-.011.07-.007.026.045.008.008-.028.011-.068.011-.084.012-.072zM28.26 11.2v.049l.088.004.08.023.076.034.065.046.054.054.045.064.032.07.015.08h.045l-.015-.088-.03-.084-.054-.073-.06-.061-.074-.053-.084-.035-.088-.022-.095-.011zM27.92 11.188l-.123.008-.125.007-.123.012-.122.012-.118.015-.119.015-.111.02-.1.018-.09.02-.085.022-.072.023-.058.027-.045.027.038.022-.046-.007.038.023.038-.02.05-.026.065-.023.084-.023.092-.018.099-.02.11-.019.112-.015.118-.016.122-.012.123-.01.125-.008h.356l.107.004V11.2l-.107-.004-.114-.008z"/><path d="M26.904 10.489l-.016.02-.267.92.046.008.267-.921-.015.02-.015-.047zm-.012.004l-.004.016.016-.02-.012.004z" fill="#FFF"/><path fill="#FFF" d="M28.222 10.302h-.237l-.111.008-.111.003-.107.009-.103.006-.103.016-.096.015-.095.02-.092.019-.091.026-.088.03-.084.035.015.046.084-.034.088-.03.084-.028.092-.019.096-.019.094-.015.096-.016.103-.007.107-.008.11-.003h.471l.13.003h.13v-.046l-.13-.007-.13-.004zM29.914 11.609l.02-.157v-.145l-.027-.134-.043-.126-.06-.118-.078-.107-.091-.096-.095-.084-.111-.073-.115-.068-.122-.054-.118-.046-.126-.034-.12-.027-.117-.018-.107-.008v.045l.107.008.11.02.119.026.118.034.119.046.114.054.115.06.103.073.096.084.084.088.076.099.053.111.042.119.028.126v.145l-.02.149zM29.467 13.618l.046.007.401-2.016-.046-.008z"/><path fill="#FBB231" d="M28.565 12.624l-.007-.022-.015-.02-.027-.01-.038-.012-.042-.004-.05-.005h-.058l-.057.005-.061.008-.06.007-.062.008-.058.008-.056.011-.05.007-.05.012-.038.007-.027.004-.03.012-.039.012-.042.015-.05.022-.045.024-.054.027-.05.033-.05.035-.05.042-.04.042-.043.05-.035.053-.026.057-.022.062-.012.065-.004.13.018.103.032.076.045.057.058.039.065.022.065.012.065.003.115-.003.106-.012.1-.019.088-.026.084-.031.072-.034.068-.04.062-.044.054-.043.044-.049.043-.046.035-.05.026-.045.02-.047.015-.045.011-.042.016-.107.02-.11.014-.108z"/><path fill="#FFF" d="M36.435 13.947l.009-.088.03-.104.053-.091.064-.08.081-.065.093-.046.099-.031.106-.011.108.01.099.032.091.046.08.065.066.08.053.091.03.104.008.088h-.114l-.004-.07-.024-.083-.037-.076-.05-.066-.061-.053-.072-.038-.085-.027-.088-.008-.087.008-.084.027-.073.038-.062.053-.049.066-.038.076-.023.084-.008.07z"/><path fill="#FFF" d="M36.779 13.718v.23h.096v-.15h.157l.018.003.02.005.011.007.012.007.007.016.004.019v.027l-.007.019-.008.011-.016.012-.019.007-.022.008-.028.004-.015.004h.16l.008-.008.012-.023.008-.027.003-.034-.003-.027-.008-.027-.016-.023-.019-.023-.026-.015-.03-.011-.043-.008-.046-.003z"/><path fill="#FFF" d="M36.435 13.947l-.003.022.012.111.03.103.053.092.064.077.081.064.093.05.099.03.106.012.108-.011.099-.03.091-.05.08-.065.066-.077.053-.092.03-.103.011-.11-.003-.023h-.114l.004.022-.008.092-.024.084-.037.073-.05.064-.061.054-.072.042-.085.027-.088.008-.087-.008-.084-.027-.073-.042-.062-.054-.049-.064-.038-.073-.023-.084-.008-.092v-.022z"/><path fill="#FFF" d="M36.99 13.947l-.02.003h-.095v-.003h-.096v.233h.096v-.191h.095l.114.19h.078l-.115-.19h.026l.027-.008.023-.008.02-.015.007-.01z"/><path d="M36.97 14.413l.088-.008.084-.027.073-.041.06-.055.05-.064.039-.073.023-.084.007-.091-.007-.092-.023-.085-.039-.076-.05-.065-.06-.053-.073-.038-.084-.027-.088-.008-.087.008-.084.027-.073.038-.062.053-.05.065-.037.076-.023.085-.008.092.008.091.023.084.038.073.05.064.061.055.073.04.084.028.087.008m0-.462l.034-.009.028-.003.022-.008.02-.007.015-.012.007-.012.008-.018v-.027l-.004-.02-.008-.015-.01-.007-.012-.008-.02-.003-.018-.004h-.157v.153h.095m-.095.229h-.096v-.463h.21l.047.004.041.008.03.011.028.015.019.023.015.024.007.026.005.027-.005.034-.007.027-.012.023-.015.02-.019.014-.023.008-.027.008h-.026l.114.191h-.077l-.114-.191h-.095v.191m-.443-.21l.012-.112.029-.103.054-.091.065-.08.08-.065.092-.046.1-.031.106-.011.107.01.1.032.092.046.08.065.065.08.053.091.03.103.012.112-.011.11-.03.103-.054.092-.065.077-.08.064-.093.05-.099.03-.107.012-.107-.011-.099-.03-.092-.05-.08-.065-.065-.077-.054-.092-.03-.103-.01-.11" stroke="#FFF" stroke-width=".216"/><path fill="#FFF" d="M29.777 14.47h1.078l.385-2.174.015-.083.023-.085.023-.084.03-.084.039-.084.045-.08.05-.077.062-.072.069-.065.076-.062.088-.057.099-.046.11-.037.123-.031.133-.023.15-.008H32.47l.172-.982-.107.008-.104.012-.095.018-.092.027-.084.03-.08.04-.076.04-.073.047-.068.054-.066.053-.06.061-.061.061-.058.065-.057.073-.058.068-.052.077.114-.691H30.49z"/><path stroke="#FFF" stroke-width=".216" d="M29.777 14.47h1.078l.385-2.174.015-.083.023-.085.023-.084.03-.084.039-.084.045-.08.05-.077.062-.072.069-.065.076-.062.088-.057.099-.046.11-.037.123-.031.133-.023.15-.008H32.47l.172-.982-.107.008-.104.012-.095.018-.092.027-.084.03-.08.04-.076.04-.073.047-.068.054-.066.053-.06.061-.061.061-.058.065-.057.073-.058.068-.052.077.114-.691H30.49l-.714 4.09"/><path fill="#FFF" d="M19.66 14.47h1.097l.367-2.174.015-.083.019-.081.019-.08.027-.077.03-.076.038-.073.046-.068.054-.065.06-.058.07-.057.084-.046.091-.042.107-.035.12-.03.129-.02.148-.01h.013l.015.004.019.003h.019l.018.004.017.004.01.004h.004l.004-.015.012-.047.015-.068.019-.084.027-.1.026-.107.035-.107.034-.107.031-.072.038-.073.039-.072.037-.065.034-.057.027-.046.02-.027.007-.011h-.003l-.016-.005-.018-.003-.028-.004h-.026l-.031-.004-.027-.004h-.027l-.118.008-.107.012-.1.018-.09.024-.089.03-.08.039-.073.037-.069.046-.064.05-.061.057-.058.058-.057.064-.058.066-.053.073-.057.075-.058.077.138-.691h-1.096z"/><path stroke="#FFF" stroke-width=".216" d="M19.66 14.47h1.097l.367-2.174.015-.083.019-.081.019-.08.027-.077.03-.076.038-.073.046-.068.054-.065.06-.058.07-.057.084-.046.091-.042.107-.035.12-.03.129-.02.148-.01h.013l.015.004.019.003h.019l.018.004.017.004.01.004h.004l.004-.015.012-.047.015-.068.019-.084.027-.1.026-.107.035-.107.034-.107.031-.072.038-.073.039-.072.037-.065.034-.057.027-.046.02-.027.007-.011h-.003l-.016-.005-.018-.003-.028-.004h-.026l-.031-.004-.027-.004h-.027l-.118.008-.107.012-.1.018-.09.024-.089.03-.08.039-.073.037-.069.046-.064.05-.061.057-.058.058-.057.064-.058.066-.053.073-.057.075-.058.077.138-.691h-1.096l-.715 4.09"/><path fill="#FBB231" d="M36.864 18.076l-.1.027-.092.046-.08.061-.066.077-.053.087-.03.1v.015h.11l.024-.08.038-.072.05-.066.06-.053.074-.042.084-.027.087-.008.088.008.085.027.072.042.06.053.05.066.039.072.023.08h.11v-.015l-.03-.1-.053-.087-.065-.077-.08-.061-.092-.046-.1-.027-.107-.011z"/><path fill="#FBB231" d="M36.99 18.356h-.211v.133h.096v-.076h.157l.019.003.019.004.012.008.01.007.008.016.004.019v.02h.076l-.003-.035-.008-.027-.015-.023-.02-.02-.026-.015-.03-.007-.043-.007zM36.444 18.49l-.012.083h.114l.008-.08v-.004z"/><path fill="#FBB231" d="M37.104 18.49v.007l-.007.018-.008.012-.015.011-.02.008-.022.009-.028.003-.034.007h-.095v-.076h-.096v.084h.364l.015-.015.011-.02.008-.023.003-.026zM37.387 18.49v.002l.007.081h.115l-.011-.084zM36.432 18.573v.011l.012.111.03.103.053.092.064.08.081.065.093.046.099.03.106.012.108-.011.099-.031.091-.046.08-.065.066-.08.053-.092.03-.103.011-.11v-.012h-.113v.011l-.008.092-.023.084-.039.072-.05.065-.06.054-.072.042-.084.027-.09.008-.086-.008-.084-.027-.073-.042-.062-.054-.049-.065-.038-.072-.023-.084-.008-.092v-.011z"/><path fill="#FBB231" d="M36.779 18.573v.222h.096v-.192h.095l.114.192h.077l-.114-.192h.026l.027-.007.023-.008.02-.015z"/><path d="M18.743 11.948h-1.395l.001-.003h-.002l.01-.054.015-.08.022-.076.027-.077.035-.068.035-.066.04-.061.047-.057.05-.054.049-.045.058-.042.057-.035.065-.03.065-.023.065-.015.068-.012.073-.004.07.008.064.012.061.015.061.022.057.031.058.034.05.039.045.045.039.054.038.057.027.065.026.073.015.076.008.084.004.092-.008.095zm1.036-.352l-.03-.228-.054-.202-.076-.176-.097-.153-.114-.13-.126-.107-.137-.092-.15-.068-.152-.058-.157-.038-.157-.027-.156-.015-.15-.004-.31.015-.273.046-.25.069-.22.096-.192.114-.168.13-.15.145-.121.153-.107.16-.088.169-.068.164-.058.164-.041.16-.032.15-.022.14-.015.123-.02.313.012.282.042.257.064.225.093.203.11.175.13.157.149.13.16.111.173.095.18.074.186.056.191.046.192.028.19.019.187.003h.126l.12-.003h.102l.1-.005.087-.007.08-.007.077-.009.068-.011.065-.012.061-.015.062-.019.057-.019.057-.023.062-.022.06-.032.062-.03.153-.94-.111.066-.107.06-.11.046-.108.042-.103.034-.107.023-.103.02-.104.015-.103.008-.098.003h-.104l-.1-.003-.098-.008-.1-.011-.096-.013-.099-.015-.076-.015-.077-.027-.076-.034-.07-.042-.067-.046-.062-.056-.057-.058-.054-.065-.045-.065-.042-.072-.031-.07-.027-.072-.015-.073-.007-.073.003-.064.01-.05h2.477l.02-.233.057-.321.027-.29-.004-.26z" fill="#FFF"/></g></svg>