<svg width="39" height="14" viewBox="0 0 39 14" xmlns="http://www.w3.org/2000/svg"><title>6F416FB3-7FE3-4FAD-AFE9-733D331A5A1D</title><g fill="none" fill-rule="evenodd"><path fill="#0066B2" d="M15.602 1.118L13.675 13.02h3.083l1.928-11.902zM35.336 13.02h2.832L35.699 1.119h-2.478c-1.145 0-1.425.886-1.425.886L27.197 13.02h3.215l.642-1.768h3.92l.362 1.768zm-3.393-4.21l1.62-4.454.912 4.454h-2.532zM27.438 3.98l.44-2.556S26.52.906 25.105.906c-1.53 0-5.165.672-5.165 3.94 0 3.075 4.266 3.113 4.266 4.727 0 1.615-3.826 1.326-5.089.308l-.459 2.671s1.377.673 3.482.673c2.104 0 5.28-1.095 5.28-4.074 0-3.094-4.304-3.384-4.304-4.728 0-1.346 3.003-1.174 4.322-.443M11.08 1.118L8.14 9.304l-.348-1.762L6.754 2.19S6.63 1.118 5.292 1.118H.432l-.057.202S1.86 1.63 3.6 2.68L6.28 13.02h3.213l4.906-11.902H11.08z"/><path d="M7.792 7.542L6.754 2.19S6.63 1.118 5.292 1.118H.432l-.057.202s2.336.486 4.577 2.308c2.143 1.743 2.84 3.914 2.84 3.914" fill="#F9A533"/></g></svg>